<?xml version="1.0" standalone="no"?><!DOCTYPE svg PUBLIC "-//W3C//DTD SVG 1.1//EN" "http://www.w3.org/Graphics/SVG/1.1/DTD/svg11.dtd"><svg t="1581594029259" class="icon" viewBox="0 0 1024 1024" version="1.1" xmlns="http://www.w3.org/2000/svg" p-id="1420" xmlns:xlink="http://www.w3.org/1999/xlink" width="200" height="200"><defs><style type="text/css"></style></defs><path d="M1023.953953 861.981769c0 89.474725-72.539413 162.017208-162.006975 162.017208H162.028465c-89.467562 0-162.006975-72.543506-162.006976-162.017208V162.018231c0-89.474725 72.539413-162.018231 162.006976-162.018231h699.919536c89.467562 0 162.006975 72.54453 162.006975 162.018231v699.963538z" fill="#077CB0" p-id="1421"></path><path d="M523.152747 179.274853c-190.139034 0-344.829546 138.143024-344.829545 307.946382 0 105.277263 59.492572 198.352916 150.003881 253.911993-24.310102 27.803586-57.49001 50.535788-97.080777 63.932592a230.704989 230.704989 0 0 1-71.326825 12.187284c31.982668 18.602237 70.791648 29.543165 112.660241 29.543165 63.194805 0 119.326921-24.931234 155.568486-63.606164a382.054486 382.054486 0 0 0 95.005563 11.984674c190.140058 0 344.829546-138.14814 344.829545-307.952521-0.001023-169.804381-154.690511-307.947405-344.830569-307.947405z m-191.455998 399.942472c-36.542411 0-66.169485-29.63219-66.169485-66.181764 0-36.555714 29.627074-66.182788 66.169485-66.182788 36.555714 0 66.182788 29.627074 66.182788 66.182788 0 36.549574-29.627074 66.181764-66.182788 66.181764z m197.310193 0.001024c-36.542411 0-66.169485-29.627074-66.169485-66.182788 0-36.549574 29.626051-66.182788 66.169485-66.182788 36.555714 0 66.182788 29.633213 66.182787 66.182788 0 36.555714-29.626051 66.182788-66.182787 66.182788z m197.324518 0c-36.555714 0-66.182788-29.627074-66.182788-66.182788 0-36.549574 29.627074-66.182788 66.182788-66.182788 36.542411 0 66.169485 29.633213 66.169485 66.182788-0.001023 36.555714-29.628097 66.182788-66.169485 66.182788z" fill="#FFFFFF" p-id="1422"></path></svg>